# xmcd CD database file
#
# Track frame offsets:
#	150
#	11297
#	27375
#	37700
#	52280
#	66495
#	77705
#	96545
#	108800
#	127367
#	138240
#	152337
#	171780
#	184617
#	199957
#	212207
#	220535
#	237587
#	248467
#	260520
#
# Disc length: 3655 seconds
#
# Revision: 0
# Processed by: cddbd v1.4b41PL3 Copyright (c) Steve Scherf et al.
# Submitted via: Feurio! 1.61 - http://www.feurio.com
#
DISCID=1b0e4514
DTITLE=Various Artist - 20 Best of Bluegrass
DYEAR=1900
DGENRE=
TTITLE0=Ricky Skaggs - Think of What You`ve Done
TTITLE1=Livewire - Living Like a Fool
TTITLE2=Del McCoury - Trainwreck of Emotion
TTITLE3=Beth and April Stevens - In My Time of Dying
TTITLE4=Jeff White - I Never Knew
TTITLE5=Longview - Brighter Mansion
TTITLE6=Lynn Morris - Mama`s Hand
TTITLE7=Wyatt Rice - Picture in a Tear
TTITLE8=The Cox Family - Everybody`s Reaching Out for Someone
TTITLE9=Phyllis Boyens - Dream of a Miner`s Child
TTITLE10=Joe Val - Poor Ellen Smith
TTITLE11=J.D. Crowe - Mr. Engineer
TTITLE12=Claire Lynch - Peewee and Fern
TTITLE13=The Johnson Mountain Boys - My Better Years
TTITLE14=Hazel Dickens - You`ll Get No More of Me
TTITLE15=Jim and Jesse - Hard Hearted
TTITLE16=R. and R. Mccoury - Another Place, Another Time
TTITLE17=The Warrior River Boys - The Goldrush is Over
TTITLE18=James King - Indecision
TTITLE19=Illrd Tyme Out - I'm Working on the Road to Gloryland
EXTD=
EXTT0=
EXTT1=
EXTT2=
EXTT3=
EXTT4=
EXTT5=
EXTT6=
EXTT7=
EXTT8=
EXTT9=
EXTT10=
EXTT11=
EXTT12=
EXTT13=
EXTT14=
EXTT15=
EXTT16=
EXTT17=
EXTT18=
EXTT19=
PLAYORDER=
